<svg width="40" height="30" viewBox="0 0 40 30" fill="none" xmlns="http://www.w3.org/2000/svg">
<path d="M32 0.333374H8C3.58935 0.333374 0 3.92265 0 8.33337V21.6667C0 26.0773 3.58935 29.6667 8 29.6667H32C36.4107 29.6667 40 26.0773 40 21.6667V8.33337C40 3.92265 36.4107 0.333374 32 0.333374ZM38.2222 21.6667C38.2222 25.0978 35.4311 27.8889 32 27.8889H8C4.56889 27.8889 1.77778 25.0978 1.77778 21.6667V8.33337C1.77778 4.90226 4.56889 2.11115 8 2.11115H32C35.4311 2.11115 38.2222 4.90226 38.2222 8.33337V21.6667ZM14.2222 22.5208L27.2489 15.0009L14.2222 7.47913V22.5208ZM16 10.5583L23.6933 15.001L16 19.4418V10.5583Z" fill="#EFE5CC"/>
</svg>
