<svg width="1440" height="900" viewBox="0 0 1440 900" fill="none" xmlns="http://www.w3.org/2000/svg">
<g filter="url(#filter0_d_64_215)">
<rect width="1440" height="900" fill="#EFE5CC"/>
</g>
<g filter="url(#filter1_f_64_215)">
<path d="M3.5 295L24.5 275.5L34.5 260.5L51 246.5L60.5 236.5L74 216L84 191.5L98.5 170.5L105.5 146L110 130L122 96.5L143.5 80.5L157.5 68.5L168 45L183.5 23L198 14.5L217 6.5H231L242.5 23V45V64V85.5L254 96.5L269 106.5L279.5 116L300 130L310 146L317.5 137L330.5 130L339 137L343 144L339 156L330.5 165.5L322.5 178V191.5L324.5 200.5V210V214L327 219C325.833 221 324.2 225.4 327 227C330.5 229 327 231 327 233C327 234.6 324 239.667 322.5 242C321.667 243.667 319.5 247.4 317.5 249C315.5 250.6 311.667 257.667 310 261C308.667 263.333 305.4 268.1 303 268.5C300 269 298 269.5 296 271C294.4 272.2 290 276.5 288 278.5L283 283.5L273.5 295.5L269 303.5L264 312V329V345L261 361L257.5 375.5L253 383C251.5 385.5 248.5 390.9 248.5 392.5C248.5 394.5 249 401 246.5 404C244 407 244 409.5 243 414.5C242.2 418.5 240.667 428.167 240 432.5V447L236.5 465.5L240 486.5L243 508C244.167 510.667 246.5 516.8 246.5 520C246.5 524 248.5 536.5 248.5 538V548.5L246.5 564.5L248.5 579.5L246.5 589.5L251 598.5V609C252.167 610 254.9 612.3 256.5 613.5C258.1 614.7 266.833 611 271 609C273.5 608.833 279 608.1 281 606.5C283.5 604.5 284.5 602.5 288.5 602C292.5 601.5 299 602 302.5 602H311L315 598.5H330C334.8 598.5 338.333 597.167 339.5 596.5C342.667 594 349.3 588.7 350.5 587.5C352 586 360 582.5 362 579.5C364 576.5 368.5 569.5 369.5 567C370.5 564.5 357 548.5 355.5 548.5C354 548.5 339.5 534 339.5 532.5C339.5 531.3 330.5 520.667 326 515.5L317.5 505.5L311 496L309 479.5L302.5 465.5V454L303 438L307.5 418.5L311 404L307.5 383L296 361V335L303 312L312.5 307.5C316.333 309.833 324.6 315.5 327 319.5C329.4 323.5 343.667 327.5 350.5 329L362 340L376 350.5H406.5L442 361H458L482 350.5C491.667 347 511.8 340 515 340C518.2 340 531.667 332.667 538 329L558 335V361L547 375.5C544 381.333 538 394.1 538 398.5C538 402.9 534.667 417 533 423.5L538 454L577.5 486.5L625 515.5L671 538L718.5 564.5L769.5 606.5L810.5 651.5L826.5 677H841V651.5C841 642 826.5 607.5 826.5 598.5C826.5 591.3 821.167 572.833 818.5 564.5L810.5 520L799.5 479.5L787 447L799.5 418.5L787 398.5C780.167 386 765.5 361 761.5 361C756.5 361 750 351 747 340C744.6 331.2 746 314.667 747 307.5V295.5V268.5L736 233L728 191.5V165.5H747L779 178L799.5 210L810.5 219H841L864.5 214L890 210L898 191.5L915.5 165.5L930 146.5L947.5 135H958L971 157.5L974.5 186.5V210V233L984.5 268.5L988.5 304.5V335L1005 356L1028.5 390.5L1037 437L1049 486.5L1064.5 531.5L1082 575.5L1088 598.5L1097.5 618.5L1124 630L1147.5 651.5L1165 643H1183.5H1196L1204 630L1217.5 624.5L1230 618.5H1243V624.5L1254.5 630L1260.5 618.5L1239 579.5L1217.5 542.5L1196 493.5L1183.5 460.5L1177.5 429.5L1174 404V377.5V356L1154 343L1127.5 320.5L1105.5 293L1088 268.5L1075 240L1064.5 214L1044 184.5L1037 157.5L1044 146.5L1064.5 157.5L1088 165.5L1105.5 178L1124 184.5L1147.5 178L1165 165.5H1183.5L1204 157.5L1217.5 135L1230 111.5L1243 93L1260.5 80.5L1272 74.5L1279 93L1284.5 117.5V141V157.5V178V210V233V240L1291.5 253L1309 268.5L1330.5 293L1348 312.5L1366.5 343L1382 369L1394 390.5L1410.5 404L1437 423.5H1440V2.5L1438.5 0H0V299.5L3.5 295Z" fill="#565A5D"/>
<path d="M248.5 538C248.5 536.5 246.5 524 246.5 520C246.5 516.8 244.167 510.667 243 508L240 486.5L236.5 465.5L240 447V432.5C240.667 428.167 242.2 418.5 243 414.5C244 409.5 244 407 246.5 404C249 401 248.5 394.5 248.5 392.5C248.5 390.9 251.5 385.5 253 383L257.5 375.5L261 361L264 345V329V312L269 303.5L273.5 295.5L283 283.5L288 278.5C290 276.5 294.4 272.2 296 271C298 269.5 300 269 303 268.5C305.4 268.1 308.667 263.333 310 261C311.667 257.667 315.5 250.6 317.5 249C319.5 247.4 321.667 243.667 322.5 242C324 239.667 327 234.6 327 233C327 231 330.5 229 327 227C324.2 225.4 325.833 221 327 219L324.5 214V210V200.5L322.5 191.5V178L330.5 165.5L339 156L343 144L339 137L330.5 130L317.5 137L310 146L300 130L279.5 116L269 106.5L254 96.5L242.5 85.5V64V45V23L231 6.5H217L198 14.5L183.5 23L168 45L157.5 68.5L143.5 80.5L122 96.5L110 130L105.5 146L98.5 170.5L84 191.5L74 216L60.5 236.5L51 246.5L34.5 260.5L24.5 275.5L3.5 295L0 299.5V0H1438.5L1440 2.5V423.5H1437L1410.5 404L1394 390.5L1382 369L1366.5 343L1348 312.5L1330.5 293L1309 268.5L1291.5 253L1284.5 240V233V210V178V157.5V141V117.5L1279 93L1272 74.5L1260.5 80.5L1243 93L1230 111.5L1217.5 135L1204 157.5L1183.5 165.5H1165L1147.5 178L1124 184.5L1105.5 178L1088 165.5L1064.5 157.5L1044 146.5L1037 157.5L1044 184.5L1064.5 214L1075 240L1088 268.5L1105.5 293L1127.5 320.5L1154 343L1174 356V377.5V404L1177.5 429.5L1183.5 460.5L1196 493.5L1217.5 542.5L1239 579.5L1260.5 618.5L1254.5 630L1243 624.5V618.5H1230L1217.5 624.5L1204 630L1196 643H1183.5H1165L1147.5 651.5L1124 630L1097.5 618.5L1088 598.5L1082 575.5L1064.5 531.5L1049 486.5L1037 437L1028.5 390.5L1005 356L988.5 335V304.5L984.5 268.5L974.5 233V210V186.5L971 157.5L958 135H947.5L930 146.5L915.5 165.5L898 191.5L890 210L864.5 214L841 219H810.5L799.5 210L779 178L747 165.5H728V191.5L736 233L747 268.5V295.5V307.5C746 314.667 744.6 331.2 747 340C750 351 756.5 361 761.5 361C765.5 361 780.167 386 787 398.5L799.5 418.5L787 447L799.5 479.5L810.5 520L818.5 564.5C821.167 572.833 826.5 591.3 826.5 598.5C826.5 607.5 841 642 841 651.5M248.5 538C248.5 539.2 248.5 545.5 248.5 548.5M248.5 538V548.5M248.5 548.5L246.5 564.5L248.5 579.5L246.5 589.5L251 598.5V609C252.167 610 254.9 612.3 256.5 613.5C258.1 614.7 266.833 611 271 609C273.5 608.833 279 608.1 281 606.5C283.5 604.5 284.5 602.5 288.5 602C292.5 601.5 299 602 302.5 602M302.5 602C305.3 602 309.333 602 311 602M302.5 602H311M311 602L315 598.5M315 598.5C318 598.5 325.2 598.5 330 598.5M315 598.5H330M330 598.5C334.8 598.5 338.333 597.167 339.5 596.5C342.667 594 349.3 588.7 350.5 587.5C352 586 360 582.5 362 579.5C364 576.5 368.5 569.5 369.5 567C370.5 564.5 357 548.5 355.5 548.5C354 548.5 339.5 534 339.5 532.5C339.5 531.3 330.5 520.667 326 515.5L317.5 505.5L311 496L309 479.5L302.5 465.5V454L303 438L307.5 418.5L311 404L307.5 383L296 361V335L303 312L312.5 307.5C316.333 309.833 324.6 315.5 327 319.5C329.4 323.5 343.667 327.5 350.5 329L362 340L376 350.5H406.5L442 361H458L482 350.5C491.667 347 511.8 340 515 340C518.2 340 531.667 332.667 538 329L558 335V361L547 375.5C544 381.333 538 394.1 538 398.5C538 402.9 534.667 417 533 423.5L538 454L577.5 486.5L625 515.5L671 538L718.5 564.5L769.5 606.5L810.5 651.5L826.5 677H841M841 677C841 671.667 841 659.1 841 651.5M841 677V651.5" stroke="black"/>
</g>
<defs>
<filter id="filter0_d_64_215" x="-4" y="0" width="1448" height="908" filterUnits="userSpaceOnUse" color-interpolation-filters="sRGB">
<feFlood flood-opacity="0" result="BackgroundImageFix"/>
<feColorMatrix in="SourceAlpha" type="matrix" values="0 0 0 0 0 0 0 0 0 0 0 0 0 0 0 0 0 0 127 0" result="hardAlpha"/>
<feOffset dy="4"/>
<feGaussianBlur stdDeviation="2"/>
<feComposite in2="hardAlpha" operator="out"/>
<feColorMatrix type="matrix" values="0 0 0 0 0 0 0 0 0 0 0 0 0 0 0 0 0 0 0.25 0"/>
<feBlend mode="normal" in2="BackgroundImageFix" result="effect1_dropShadow_64_215"/>
<feBlend mode="normal" in="SourceGraphic" in2="effect1_dropShadow_64_215" result="shape"/>
</filter>
<filter id="filter1_f_64_215" x="-4.5" y="-4.5" width="1449" height="686" filterUnits="userSpaceOnUse" color-interpolation-filters="sRGB">
<feFlood flood-opacity="0" result="BackgroundImageFix"/>
<feBlend mode="normal" in="SourceGraphic" in2="BackgroundImageFix" result="shape"/>
<feGaussianBlur stdDeviation="2" result="effect1_foregroundBlur_64_215"/>
</filter>
</defs>
</svg>
