<svg width="40" height="40" viewBox="0 0 40 40" fill="none" xmlns="http://www.w3.org/2000/svg">
<g clip-path="url(#clip0_64_692)">
<path d="M20 0C31.0457 0 40 8.9543 40 20C40 31.0457 31.0457 40 20 40C8.9543 40 0 31.0457 0 20C0 8.9543 8.9543 0 20 0ZM20 2.5C10.335 2.5 2.5 10.335 2.5 20C2.5 29.665 10.335 37.5 20 37.5C29.665 37.5 37.5 29.665 37.5 20C37.5 10.335 29.665 2.5 20 2.5ZM19.7145 10.6967L28.5533 19.5355L28.5271 19.5633L28.5533 19.5895L19.7145 28.4283L17.9467 26.6605L23.8033 20.8046L10.75 20.8033V18.3033L23.7858 18.3046L17.9467 12.4645L19.7145 10.6967Z" fill="#565A5D"/>
</g>
<defs>
<clipPath id="clip0_64_692">
<rect width="40" height="40" fill="white"/>
</clipPath>
</defs>
</svg>
