<svg width="44" height="46" viewBox="0 0 44 46" fill="none" xmlns="http://www.w3.org/2000/svg">
<g filter="url(#filter0_d_29_402)">
<path d="M4.5 6.25V7.5V25V26.25H5.75H9.5V30V32.6172L11.5312 30.9766L17.4297 26.25H28.25H29.5V25V7.5V6.25H28.25H5.75H4.5ZM7 8.75H27V23.75H17H16.5703L16.2188 24.0234L12 27.3828V25V23.75H10.75H7V8.75ZM32 11.25V13.75H37V28.75H32V32.3828L27.4297 28.75H18.0547L14.9297 31.25H26.5703L34.5 37.6172V31.25H39.5V11.25H32Z" fill="#EFE5CC"/>
</g>
<defs>
<filter id="filter0_d_29_402" x="-2" y="0" width="48" height="48" filterUnits="userSpaceOnUse" color-interpolation-filters="sRGB">
<feFlood flood-opacity="0" result="BackgroundImageFix"/>
<feColorMatrix in="SourceAlpha" type="matrix" values="0 0 0 0 0 0 0 0 0 0 0 0 0 0 0 0 0 0 127 0" result="hardAlpha"/>
<feOffset dy="4"/>
<feGaussianBlur stdDeviation="2"/>
<feComposite in2="hardAlpha" operator="out"/>
<feColorMatrix type="matrix" values="0 0 0 0 0 0 0 0 0 0 0 0 0 0 0 0 0 0 0.25 0"/>
<feBlend mode="normal" in2="BackgroundImageFix" result="effect1_dropShadow_29_402"/>
<feBlend mode="normal" in="SourceGraphic" in2="effect1_dropShadow_29_402" result="shape"/>
</filter>
</defs>
</svg>
