<svg width="53" height="53" viewBox="0 0 53 53" fill="none" xmlns="http://www.w3.org/2000/svg">
<path d="M26.5 0C11.8638 0 0 11.8638 0 26.5C0 41.1362 11.8638 53 26.5 53C41.1362 53 53 41.1362 53 26.5C53 11.8638 41.1362 0 26.5 0ZM26.5 48.8594C14.1509 48.8594 4.14062 38.8491 4.14062 26.5C4.14062 14.1509 14.1509 4.14062 26.5 4.14062C38.8491 4.14062 48.8594 14.1509 48.8594 26.5C48.8594 38.8491 38.8491 48.8594 26.5 48.8594Z" fill="#565A5D"/>
<path d="M28.1045 34.833H34.7295V21.8936V18.2705H28.1045V34.833Z" fill="#565A5D"/>
<path d="M24.792 18.2705H18.167V34.833H24.792V18.2705Z" fill="#565A5D"/>
</svg>
