<svg width="53" height="53" viewBox="0 0 53 53" fill="none" xmlns="http://www.w3.org/2000/svg">
<path d="M26.5 0C33.5282 0 40.2686 2.79196 45.2383 7.76167C50.208 12.7314 53 19.4718 53 26.5C53 33.5282 50.208 40.2686 45.2383 45.2383C40.2686 50.208 33.5282 53 26.5 53C19.4718 53 12.7314 50.208 7.76167 45.2383C2.79196 40.2686 0 33.5282 0 26.5C0 19.4718 2.79196 12.7314 7.76167 7.76167C12.7314 2.79196 19.4718 0 26.5 0ZM4.96875 26.5C4.96875 32.2104 7.23721 37.687 11.2751 41.7249C15.313 45.7628 20.7896 48.0312 26.5 48.0312C32.2104 48.0312 37.687 45.7628 41.7249 41.7249C45.7628 37.687 48.0312 32.2104 48.0312 26.5C48.0312 20.7896 45.7628 15.313 41.7249 11.2751C37.687 7.23721 32.2104 4.96875 26.5 4.96875C20.7896 4.96875 15.313 7.23721 11.2751 11.2751C7.23721 15.313 4.96875 20.7896 4.96875 26.5ZM21.1304 17.3144L35.2549 25.7911C35.377 25.8648 35.478 25.9688 35.548 26.093C35.6181 26.2172 35.6549 26.3574 35.6549 26.5C35.6549 26.6426 35.6181 26.7828 35.548 26.907C35.478 27.0312 35.377 27.1352 35.2549 27.2089L21.1304 35.6856C21.0048 35.7612 20.8614 35.8022 20.7148 35.8042C20.5682 35.8063 20.4236 35.7694 20.296 35.6973C20.1683 35.6252 20.062 35.5205 19.9881 35.3939C19.9141 35.2673 19.8751 35.1233 19.875 34.9767V18.0266C19.8745 17.8797 19.9131 17.7353 19.9868 17.6082C20.0605 17.4812 20.1667 17.376 20.2945 17.3035C20.4223 17.231 20.5671 17.1938 20.714 17.1957C20.8609 17.1977 21.0046 17.2386 21.1304 17.3144Z" fill="#565A5D"/>
</svg>
