<svg width="53" height="53" viewBox="0 0 53 53" fill="none" xmlns="http://www.w3.org/2000/svg">
<path d="M34.363 21.4525H50.4762V5.56512L45.0059 11.0986C44.5768 10.5951 44.1844 10.1017 43.7175 9.62214C34.2784 0.157854 19.0195 0.157854 9.59304 9.62214C0.155251 19.0864 0.172917 34.4325 9.61197 43.8967C19.0397 53.361 34.3415 53.361 43.7818 43.8967C43.7818 43.8967 46.9429 40.188 47.989 38.2055L42.7786 35.8836C42.0101 37.2314 39.7627 39.8561 39.7627 39.8561C32.5458 47.0995 20.8606 47.0995 13.6551 39.8561C6.43701 32.6267 6.43827 20.8884 13.6551 13.6577C20.8606 6.41438 32.5471 6.41438 39.7627 13.6577C40.2434 14.1372 40.6826 14.382 41.1015 14.8994L34.363 21.4525Z" fill="#565A5D"/>
</svg>
